<svg id="svg" xmlns="http://www.w3.org/2000/svg" xmlns:xlink="http://www.w3.org/1999/xlink" width="400" height="400" viewBox="0, 0, 400,400"><g id="svgg"><path id="path0" d="M120.033 146.791 C 119.584 147.241,119.658 148.289,120.215 149.335 C 120.858 150.545,120.903 152.957,120.313 154.637 C 119.652 156.516,119.926 156.829,122.232 156.833 C 124.172 156.837,124.834 156.393,125.067 154.930 C 125.231 153.910,125.141 153.902,126.601 155.078 C 128.019 156.221,128.516 156.325,128.516 155.480 C 128.516 155.164,128.428 154.852,128.320 154.785 C 128.213 154.719,128.125 154.565,128.125 154.442 C 128.125 154.320,128.433 154.519,128.809 154.883 C 129.266 155.326,129.428 155.611,129.297 155.742 C 128.733 156.306,129.325 158.398,130.048 158.398 C 130.585 158.398,131.037 159.139,130.924 159.836 C 130.740 160.968,131.965 161.819,133.212 161.423 C 133.653 161.283,133.763 160.062,133.350 159.895 C 133.215 159.841,133.281 159.789,133.496 159.781 C 133.845 159.767,133.880 159.869,133.819 160.742 L 133.751 161.719 133.005 161.719 C 132.595 161.719,132.228 161.813,132.189 161.929 C 132.151 162.044,131.594 162.184,130.952 162.239 L 129.785 162.340 129.464 161.556 C 129.012 160.452,127.522 160.070,125.498 160.540 C 124.022 160.882,124.015 160.911,124.071 167.059 L 124.121 172.496 124.582 172.869 C 125.122 173.306,128.322 173.411,129.180 173.020 C 129.723 172.773,130.078 171.960,130.078 170.967 C 130.078 170.329,130.099 170.312,130.908 170.301 C 131.365 170.294,132.146 170.222,132.645 170.140 L 133.551 169.990 133.673 171.079 C 133.740 171.678,133.842 173.091,133.900 174.219 C 134.035 176.871,134.077 177.039,134.663 177.306 L 135.156 177.531 135.161 180.709 C 135.166 184.697,135.369 185.300,136.956 186.039 C 137.524 186.303,138.100 186.520,138.238 186.522 C 138.775 186.526,140.166 188.194,140.397 189.111 C 140.752 190.521,140.713 206.497,140.352 207.635 C 140.201 208.109,139.229 210.518,138.192 212.988 C 135.088 220.378,130.727 231.468,130.472 232.617 C 129.639 236.377,130.504 240.853,132.234 241.740 C 133.909 242.597,132.907 242.585,193.953 242.532 L 252.637 242.480 253.809 241.895 C 256.523 240.537,257.176 235.849,255.383 230.577 C 254.328 227.474,248.715 213.373,247.137 209.863 L 245.996 207.324 245.934 198.633 C 245.857 187.767,245.856 187.771,248.741 186.402 C 250.938 185.359,251.059 185.085,251.138 180.957 C 251.198 177.798,251.224 177.613,251.655 177.148 C 252.067 176.705,252.539 173.222,252.539 170.626 C 252.539 170.377,252.757 170.313,253.599 170.313 L 254.659 170.313 254.798 171.423 C 255.031 173.285,255.974 173.783,258.916 173.596 C 261.004 173.463,260.938 173.676,260.938 167.077 C 260.937 160.016,260.999 160.156,257.914 160.156 C 255.171 160.156,254.687 160.609,254.688 163.174 L 254.688 164.648 253.809 164.648 C 252.740 164.648,252.660 164.360,253.662 164.123 C 254.754 163.865,254.770 162.701,253.685 162.445 C 252.993 162.281,252.974 162.251,252.888 161.216 C 252.824 160.443,252.640 159.930,252.209 159.326 C 251.884 158.869,251.463 158.013,251.274 157.422 C 251.084 156.831,250.851 156.264,250.757 156.162 C 250.663 156.060,250.586 155.068,250.586 153.959 C 250.586 150.929,250.157 150.195,248.383 150.195 C 247.316 150.195,246.964 150.546,246.714 151.857 C 246.537 152.787,246.527 152.746,246.495 150.977 C 246.441 147.904,245.950 147.171,244.055 147.330 C 242.871 147.429,242.383 147.934,242.383 149.059 C 242.383 149.762,242.355 149.805,242.076 149.526 C 241.389 148.839,247.168 148.892,181.606 148.975 C 138.941 149.029,142.512 148.915,142.250 150.226 C 142.187 150.541,142.038 150.755,141.917 150.704 C 140.264 150.002,139.333 150.099,138.993 151.008 L 138.770 151.608 136.816 151.481 C 135.742 151.411,134.400 151.305,133.833 151.244 C 132.483 151.099,131.918 151.454,131.621 152.634 C 131.228 154.194,131.069 154.163,128.953 152.114 C 125.393 148.665,123.536 147.019,122.907 146.751 C 122.038 146.382,120.420 146.405,120.033 146.791 M125.781 152.095 C 125.781 152.278,122.784 149.586,122.541 149.185 C 122.455 149.043,123.148 149.618,124.083 150.463 C 125.017 151.309,125.781 152.043,125.781 152.095 M244.600 150.635 C 244.668 151.199,244.724 152.435,244.725 153.382 C 244.727 155.961,244.990 156.238,247.626 156.450 C 249.279 156.582,249.600 156.747,249.606 157.471 C 249.611 158.003,246.810 157.839,246.707 157.302 C 246.586 156.659,246.264 156.445,245.419 156.445 C 244.584 156.445,244.405 156.607,244.067 157.666 C 243.829 158.409,243.555 157.961,243.555 156.831 C 243.555 155.680,243.542 155.652,242.969 155.537 C 242.174 155.378,242.172 154.102,242.966 154.102 C 243.590 154.102,244.124 152.170,244.139 149.854 C 244.144 149.156,244.494 149.749,244.600 150.635 M123.055 151.623 C 123.060 152.073,123.142 152.837,123.237 153.320 C 123.368 153.989,123.342 154.304,123.126 154.639 C 122.785 155.168,122.158 155.251,122.353 154.741 C 122.424 154.555,122.535 153.548,122.599 152.501 C 122.712 150.637,123.039 150.009,123.055 151.623 M241.049 151.300 C 241.704 151.893,241.513 152.321,240.644 152.204 C 239.680 152.075,239.355 152.547,239.560 153.774 C 239.707 154.655,239.905 154.875,240.555 154.880 C 241.013 154.883,241.069 155.260,241.333 160.107 L 241.442 162.109 239.880 162.109 C 238.374 162.109,238.288 162.085,237.479 161.408 L 236.639 160.706 234.905 160.773 C 233.231 160.838,233.151 160.862,232.604 161.475 L 232.037 162.109 225.392 162.109 L 218.747 162.109 218.342 161.644 C 217.617 160.809,215.125 160.757,214.265 161.559 C 213.855 161.941,213.490 161.945,184.435 161.922 L 155.020 161.899 154.414 161.467 C 153.338 160.699,150.651 160.721,149.758 161.505 L 149.070 162.109 146.605 162.109 L 144.141 162.109 144.141 156.543 L 144.141 150.977 192.416 150.977 C 237.063 150.977,240.719 151.001,241.049 151.300 M160.352 152.148 C 144.935 152.252,145.311 152.226,145.315 153.185 C 145.320 154.185,145.533 154.364,146.510 154.193 C 146.979 154.111,167.657 154.013,192.461 153.974 C 226.311 153.922,237.628 153.848,237.833 153.678 C 238.383 153.221,238.064 152.276,237.305 152.113 C 236.585 151.959,185.123 151.982,160.352 152.148 M135.254 153.211 C 135.898 153.357,136.228 153.485,135.986 153.496 C 135.476 153.519,135.475 153.524,135.773 154.520 C 136.084 155.556,135.927 155.603,135.035 154.741 C 134.616 154.336,134.104 153.910,133.898 153.796 C 133.655 153.661,133.568 153.473,133.650 153.259 C 133.799 152.872,133.755 152.873,135.254 153.211 M139.258 153.990 C 139.258 155.026,138.595 155.596,138.514 154.630 C 138.474 154.163,138.306 153.809,138.031 153.616 C 137.625 153.332,137.641 153.320,138.433 153.320 C 139.242 153.320,139.258 153.333,139.258 153.990 M142.344 156.494 C 142.323 158.132,142.278 158.813,142.246 158.008 C 142.158 155.841,142.105 155.714,141.189 155.439 C 139.874 155.045,140.262 153.890,141.789 153.652 C 142.062 153.609,142.307 153.561,142.334 153.545 C 142.361 153.529,142.365 154.856,142.344 156.494 M132.679 155.493 C 134.544 156.451,134.647 158.025,132.825 157.717 C 131.276 157.455,130.525 156.253,131.489 155.577 C 132.006 155.215,132.122 155.207,132.679 155.493 M139.059 156.876 L 140.430 157.111 140.430 158.145 L 140.430 159.180 137.701 159.180 C 135.403 159.180,134.990 159.135,135.081 158.898 C 135.142 158.740,135.507 158.589,135.905 158.556 C 136.611 158.497,136.622 158.483,136.681 157.568 C 136.750 156.493,136.777 156.484,139.059 156.876 M138.540 157.930 C 138.406 158.278,138.807 158.621,139.258 158.543 C 139.419 158.515,139.579 158.295,139.613 158.055 C 139.689 157.521,138.739 157.410,138.540 157.930 M250.507 160.464 C 250.741 161.023,250.781 161.847,250.713 164.614 C 250.666 166.513,250.593 169.626,250.550 171.531 C 250.460 175.598,250.612 175.349,248.116 175.512 C 245.884 175.658,244.877 175.521,245.370 175.137 C 245.915 174.713,246.131 171.184,245.978 165.204 L 245.839 159.766 248.027 159.766 L 250.215 159.766 250.507 160.464 M243.945 161.127 C 243.945 162.083,243.893 162.272,243.652 162.180 C 243.351 162.065,243.219 160.362,243.490 160.091 C 243.819 159.762,243.945 160.049,243.945 161.127 M140.430 166.815 C 140.430 172.424,140.448 172.715,140.826 173.196 C 141.097 173.541,141.159 173.763,141.021 173.901 C 140.298 174.624,141.167 175.500,142.439 175.330 C 143.614 175.172,144.082 173.968,143.066 173.713 C 142.273 173.514,142.509 173.215,143.408 173.280 C 144.236 173.340,144.238 173.342,144.195 174.075 C 144.104 175.627,144.224 175.586,139.770 175.586 L 135.804 175.586 135.676 172.217 C 135.606 170.364,135.548 167.068,135.547 164.893 L 135.547 160.938 137.988 160.938 L 140.430 160.938 140.430 166.815 M258.887 166.895 L 258.887 171.582 258.105 171.633 C 256.751 171.721,256.776 171.804,256.718 167.058 C 256.653 161.819,256.593 162.074,257.878 162.149 L 258.887 162.207 258.887 166.895 M127.637 166.895 L 127.637 171.387 126.855 171.387 L 126.074 171.387 126.022 167.006 C 125.964 162.247,125.962 162.257,127.051 162.351 L 127.637 162.402 127.637 166.895 M216.895 163.867 C 216.972 163.992,219.761 164.063,224.621 164.063 C 232.096 164.063,232.227 164.069,232.227 164.453 C 232.227 164.933,220.174 165.066,218.453 164.606 C 217.782 164.427,217.476 164.423,217.206 164.592 C 216.497 165.034,155.078 164.900,155.078 164.456 C 155.078 163.904,153.760 163.923,185.668 164.017 C 207.624 164.082,215.807 164.047,215.905 163.889 C 216.072 163.619,216.732 163.604,216.895 163.867 M133.789 164.160 C 133.789 164.398,133.474 164.453,132.129 164.453 C 129.515 164.453,130.055 163.981,132.764 163.898 C 133.559 163.874,133.789 163.933,133.789 164.160 M148.828 164.355 C 148.828 164.593,148.471 164.655,146.924 164.684 C 145.876 164.703,144.426 164.735,143.701 164.754 C 142.534 164.785,142.383 164.747,142.383 164.426 C 142.383 164.086,142.594 164.063,145.605 164.063 C 148.340 164.063,148.828 164.107,148.828 164.355 M243.945 164.453 C 243.945 164.827,243.815 164.844,240.918 164.844 C 238.021 164.844,237.891 164.827,237.891 164.453 C 237.891 164.079,238.021 164.063,240.918 164.063 C 243.815 164.063,243.945 164.079,243.945 164.453 M133.789 167.258 L 133.789 167.915 132.127 168.050 C 130.228 168.204,130.078 168.155,130.078 167.384 C 130.078 166.741,130.275 166.680,132.471 166.631 L 133.789 166.602 133.789 167.258 M149.850 167.131 C 150.591 167.801,154.492 167.663,154.492 166.967 C 154.492 166.836,193.199 166.845,216.211 166.980 C 216.909 166.985,220.858 166.941,224.986 166.883 C 232.362 166.781,232.509 166.786,233.473 167.201 C 234.570 167.673,236.233 167.618,237.050 167.083 C 237.717 166.646,243.853 166.666,244.022 167.106 C 244.087 167.276,244.141 168.316,244.141 169.417 L 244.141 171.420 218.132 171.545 C 203.827 171.613,180.932 171.613,167.253 171.545 L 142.383 171.420 142.385 169.450 C 142.390 166.384,142.022 166.658,146.036 166.725 C 149.001 166.775,149.517 166.830,149.850 167.131 M254.541 166.795 C 254.801 166.796,254.883 166.960,254.883 167.480 L 254.883 168.164 253.809 168.164 L 252.734 168.164 252.734 167.357 L 252.734 166.550 253.467 166.672 C 253.870 166.738,254.353 166.794,254.541 166.795 M184.917 173.646 C 184.377 173.961,146.484 173.996,146.484 173.682 C 146.484 173.488,150.488 173.439,165.869 173.443 C 178.962 173.447,185.144 173.513,184.917 173.646 M222.862 173.584 C 212.165 173.616,205.544 173.706,205.473 173.821 C 205.406 173.930,204.770 173.958,203.948 173.890 C 199.856 173.547,204.348 173.442,221.338 173.485 L 240.137 173.533 222.862 173.584 M242.971 173.728 C 242.838 173.887,242.766 174.327,242.810 174.704 C 242.896 175.439,242.359 175.728,242.111 175.082 C 241.757 174.160,241.973 173.438,242.602 173.438 C 243.119 173.438,243.175 173.481,242.971 173.728 M187.393 174.437 C 186.969 174.879,185.698 175.854,184.570 176.605 C 183.442 177.355,182.365 178.106,182.177 178.273 C 181.518 178.859,181.652 178.386,182.333 177.721 C 182.896 177.172,187.772 173.718,188.077 173.652 C 188.125 173.641,187.818 173.995,187.393 174.437 M193.903 174.133 C 194.873 174.813,195.013 175.424,195.117 179.454 C 195.213 183.152,195.207 183.222,194.824 183.119 C 194.609 183.061,193.687 183.012,192.773 183.011 L 191.113 183.008 191.176 180.616 C 191.316 175.221,191.448 174.153,191.992 174.002 C 192.822 173.772,193.449 173.815,193.903 174.133 M201.467 174.546 C 202.761 176.285,202.710 176.274,209.287 176.246 L 214.766 176.222 214.571 177.174 L 214.376 178.125 210.158 178.125 L 205.941 178.125 204.191 177.123 C 201.588 175.631,199.914 174.394,200.229 174.194 C 200.688 173.903,201.070 174.011,201.467 174.546 M197.656 175.807 C 197.656 176.228,198.321 176.637,199.023 176.648 C 199.649 176.658,201.953 177.915,201.953 178.246 C 201.953 178.287,200.898 178.320,199.609 178.320 L 197.266 178.320 197.266 176.844 C 197.266 175.909,197.337 175.412,197.461 175.488 C 197.568 175.555,197.656 175.698,197.656 175.807 M189.162 178.286 C 189.099 178.349,188.194 178.436,187.151 178.479 L 185.254 178.557 186.595 177.609 C 187.333 177.087,188.212 176.425,188.548 176.138 L 189.160 175.616 189.218 176.893 C 189.250 177.596,189.225 178.223,189.162 178.286 M240.603 176.807 C 240.954 177.102,241.565 177.396,241.961 177.459 C 242.961 177.619,244.633 179.743,244.099 180.174 C 243.856 180.370,216.831 180.424,216.635 180.229 C 216.315 179.909,216.350 178.839,216.724 177.506 L 217.042 176.372 223.902 176.321 C 227.675 176.293,232.832 176.270,235.363 176.270 L 239.964 176.270 240.603 176.807 M169.507 177.101 C 170.017 178.100,170.364 179.457,170.238 179.959 L 170.134 180.374 156.307 180.306 C 148.702 180.268,142.422 180.180,142.351 180.109 C 142.280 180.038,142.280 179.454,142.351 178.811 L 142.480 177.641 143.464 177.500 C 144.608 177.336,145.898 176.838,145.898 176.560 C 145.898 176.435,150.006 176.367,157.516 176.367 L 169.133 176.367 169.507 177.101 M180.582 176.851 C 180.327 177.068,179.967 177.488,179.782 177.783 L 179.447 178.320 176.374 178.320 C 172.757 178.320,172.231 178.189,171.838 177.187 L 171.555 176.465 176.301 176.461 L 181.047 176.456 180.582 176.851 M140.625 177.621 C 140.625 177.666,140.485 178.248,140.315 178.914 C 139.464 182.235,139.040 182.110,151.534 182.227 L 162.012 182.324 163.583 185.366 C 169.915 197.629,179.024 203.555,191.994 203.851 C 206.323 204.177,216.413 198.233,222.701 185.760 C 223.536 184.105,224.219 182.633,224.219 182.489 C 224.219 182.273,226.048 182.227,234.642 182.227 C 246.900 182.227,246.094 182.372,246.094 180.155 C 246.094 179.461,245.966 178.589,245.811 178.216 L 245.528 177.539 246.738 177.539 C 248.723 177.540,249.102 178.001,249.189 180.522 C 249.288 183.370,249.104 183.841,247.599 184.593 C 245.770 185.508,245.208 186.012,244.548 187.333 L 243.945 188.539 243.945 197.945 C 243.945 208.318,243.911 207.971,245.236 210.866 C 245.623 211.711,246.357 213.457,246.868 214.746 C 247.378 216.035,248.986 220.034,250.441 223.633 C 255.353 235.787,255.304 236.166,248.842 236.115 L 246.582 236.097 247.656 235.822 C 252.853 234.490,252.947 234.165,250.128 227.246 C 242.488 208.496,243.341 209.902,239.654 209.977 C 237.248 210.025,236.943 209.745,238.226 208.668 C 238.898 208.103,238.935 208.019,238.719 207.544 C 238.405 206.857,237.184 206.818,236.426 207.471 C 235.621 208.165,235.286 211.023,235.960 211.440 C 236.300 211.650,236.123 211.885,235.527 212.016 C 235.194 212.089,234.742 212.328,234.524 212.546 C 234.185 212.885,234.103 212.900,233.964 212.652 C 233.492 211.808,228.826 211.662,227.750 212.458 C 227.419 212.702,227.148 212.815,227.148 212.709 C 227.148 211.515,220.808 211.732,220.567 212.934 L 220.455 213.495 220.232 213.046 C 219.714 212.008,215.560 211.468,214.063 212.243 C 213.365 212.605,212.957 214.230,213.483 214.555 C 213.587 214.619,213.672 214.798,213.672 214.953 C 213.672 215.416,214.437 216.038,215.151 216.153 C 215.848 216.267,216.084 216.602,215.467 216.602 C 214.371 216.602,213.861 218.593,214.539 220.217 C 215.396 222.268,221.389 222.364,221.783 220.333 L 221.920 219.629 222.205 220.220 C 223.089 222.051,229.297 222.306,229.297 220.511 C 229.297 219.997,229.356 220.011,230.030 220.685 C 231.462 222.117,236.719 222.044,236.719 220.592 C 236.719 220.207,236.911 220.242,237.420 220.720 C 237.659 220.944,238.192 221.248,238.605 221.395 C 239.343 221.658,239.346 221.663,238.770 221.674 C 237.332 221.701,237.242 221.800,237.362 223.223 C 237.775 228.128,238.541 229.125,242.001 229.264 C 244.268 229.355,244.864 229.027,245.058 227.580 C 245.120 227.119,245.320 226.636,245.504 226.506 C 246.024 226.136,246.289 225.490,246.294 224.573 L 246.299 223.730 246.991 225.293 C 248.759 229.285,249.984 232.672,249.792 233.032 C 249.539 233.504,247.962 233.929,245.898 234.081 C 244.985 234.148,244.019 234.279,243.750 234.373 C 242.753 234.720,234.700 234.750,235.202 234.405 C 236.039 233.828,236.120 233.568,236.127 231.434 C 236.133 229.359,236.000 228.883,235.352 228.651 C 235.190 228.594,235.351 228.540,235.708 228.531 C 237.485 228.489,237.998 226.259,236.817 223.716 C 236.114 222.203,230.885 221.919,230.229 223.359 C 229.964 223.941,229.833 223.948,229.587 223.393 C 229.327 222.806,228.194 222.494,226.250 222.476 C 223.772 222.452,222.818 223.067,223.094 224.510 C 223.146 224.780,223.112 225.000,223.020 225.000 C 222.927 225.000,222.852 224.746,222.852 224.435 C 222.852 222.972,221.339 222.329,218.313 222.504 C 216.268 222.622,215.838 223.020,215.846 224.782 C 215.855 226.654,216.351 227.756,217.385 228.205 C 218.051 228.494,218.019 228.500,216.016 228.507 L 213.965 228.514 214.574 228.142 C 216.408 227.024,215.404 222.881,213.219 222.554 C 209.474 221.992,208.291 222.650,208.325 225.276 C 208.352 227.344,208.481 227.633,209.634 228.201 C 210.237 228.498,210.197 228.507,208.203 228.503 C 206.279 228.500,206.185 228.482,206.687 228.210 C 207.846 227.581,208.151 223.868,207.107 223.104 C 206.023 222.312,202.233 222.225,201.235 222.970 C 199.967 223.915,200.384 227.441,201.856 228.208 C 202.422 228.503,202.378 228.513,200.488 228.507 C 198.649 228.500,198.566 228.483,199.070 228.210 C 200.082 227.661,200.601 225.115,200.015 223.575 C 199.495 222.207,194.470 222.001,193.390 223.303 C 192.556 224.309,193.121 227.667,194.216 228.207 C 194.804 228.497,194.760 228.507,192.871 228.503 C 191.033 228.500,190.949 228.483,191.453 228.210 C 193.083 227.325,193.281 223.543,191.734 222.840 C 190.001 222.053,186.476 222.431,185.924 223.463 L 185.684 223.911 185.521 223.470 C 184.978 222.003,179.659 222.096,179.006 223.584 C 178.900 223.826,178.753 224.023,178.678 224.023 C 178.604 224.023,178.515 223.826,178.480 223.584 C 178.279 222.163,173.229 221.989,172.045 223.362 C 171.206 224.335,171.130 227.142,171.922 227.917 L 172.535 228.516 171.033 228.516 C 169.341 228.516,169.304 228.486,170.113 227.805 C 170.961 227.092,171.528 224.411,171.037 223.438 C 170.536 222.445,166.980 222.076,165.295 222.841 C 163.934 223.459,163.198 226.693,164.163 227.816 C 164.430 228.127,164.648 228.411,164.648 228.448 C 164.648 228.485,163.967 228.515,163.135 228.513 L 161.621 228.511 162.279 227.993 C 163.125 227.326,163.452 226.521,163.603 224.729 C 163.758 222.898,163.469 222.636,161.130 222.501 C 158.251 222.334,156.834 222.881,156.559 224.266 C 156.026 226.955,156.025 227.170,156.552 227.861 L 157.051 228.516 155.352 228.516 L 153.652 228.516 154.456 227.934 C 155.687 227.042,156.500 224.766,156.097 223.340 C 155.626 221.673,150.166 221.891,149.294 223.612 C 149.092 224.010,149.067 223.983,148.949 223.245 C 148.807 222.359,148.391 222.088,147.106 222.048 C 146.711 222.035,146.563 221.986,146.777 221.937 C 149.113 221.413,150.586 219.789,150.586 217.739 C 150.586 217.066,150.512 216.942,149.974 216.716 L 149.362 216.459 150.233 216.126 C 152.786 215.151,153.722 211.914,151.451 211.914 C 150.820 211.914,150.571 211.677,150.954 211.440 C 151.628 211.023,151.293 208.165,150.488 207.471 C 149.730 206.818,148.509 206.857,148.195 207.544 C 147.979 208.019,148.016 208.103,148.688 208.668 C 149.971 209.745,149.666 210.025,147.260 209.977 C 143.587 209.902,143.389 210.179,138.834 221.753 C 138.628 222.277,138.290 223.038,138.083 223.444 C 136.992 225.581,134.570 232.072,134.571 232.854 C 134.573 234.687,135.653 235.463,138.627 235.767 C 141.469 236.058,141.086 236.198,137.793 236.072 C 133.218 235.897,132.304 235.469,132.475 233.581 C 132.592 232.293,135.373 225.192,142.126 208.938 L 142.592 207.817 142.536 198.098 L 142.480 188.379 141.933 187.264 C 141.289 185.953,140.347 185.144,138.783 184.559 C 137.266 183.991,137.109 183.593,137.109 180.292 L 137.109 177.758 137.842 177.681 C 138.954 177.565,140.625 177.529,140.625 177.621 M211.888 180.135 C 212.514 180.190,208.721 184.029,206.569 185.516 C 200.107 189.983,191.425 190.892,183.924 187.886 C 180.089 186.350,177.752 184.563,174.488 180.670 L 174.074 180.176 181.121 180.116 C 189.416 180.046,189.105 180.007,189.025 181.110 L 188.965 181.934 187.207 181.956 C 184.902 181.985,184.961 181.973,184.961 182.406 C 184.961 184.389,187.814 185.319,190.938 184.354 C 192.357 183.916,193.066 183.922,195.898 184.397 C 198.214 184.785,199.109 184.742,199.672 184.213 C 199.937 183.964,200.449 183.613,200.809 183.433 C 201.530 183.073,201.759 182.406,201.337 181.897 C 201.124 181.641,200.761 181.606,199.173 181.694 L 197.266 181.799 197.266 180.942 L 197.266 180.085 202.197 180.033 C 206.679 179.985,210.688 180.027,211.888 180.135 M214.258 181.274 C 214.258 182.392,214.361 182.422,218.269 182.422 C 220.252 182.422,221.874 182.488,221.873 182.568 C 221.873 182.649,221.451 183.550,220.936 184.570 C 215.144 196.050,205.878 201.814,193.164 201.845 C 180.719 201.875,171.503 196.084,165.615 184.535 L 164.420 182.191 167.513 182.327 C 169.614 182.420,170.744 182.550,171.038 182.735 C 171.827 183.232,172.032 183.087,172.176 181.936 C 172.318 180.799,172.544 180.683,172.753 181.638 C 172.823 181.956,173.281 182.662,173.770 183.206 C 174.259 183.750,174.604 184.250,174.537 184.318 C 174.469 184.385,174.414 184.338,174.414 184.212 C 174.414 183.718,173.600 184.040,171.783 185.255 C 170.737 185.954,169.649 186.575,169.365 186.634 C 167.154 187.096,168.534 189.332,173.728 193.701 C 183.847 202.213,200.315 202.852,211.133 195.152 C 214.308 192.892,219.553 187.057,219.168 186.213 C 218.864 185.545,218.187 185.613,217.175 186.414 L 216.326 187.086 214.706 185.531 C 213.816 184.676,212.867 183.876,212.598 183.754 C 212.032 183.496,211.994 183.346,212.409 183.002 C 212.574 182.866,212.987 182.289,213.326 181.721 C 213.944 180.688,214.258 180.538,214.258 181.274 M213.221 187.042 C 214.333 188.125,214.850 188.764,214.774 188.962 C 214.588 189.447,214.356 189.308,213.721 188.330 C 212.926 187.108,211.415 185.547,211.026 185.547 C 210.488 185.547,209.961 185.937,209.961 186.335 C 209.961 186.546,209.834 186.719,209.678 186.719 C 209.261 186.719,207.422 188.138,207.422 188.460 C 207.422 188.611,207.991 189.811,208.686 191.125 C 209.752 193.140,209.907 193.552,209.672 193.746 C 209.359 194.006,209.196 193.698,208.180 190.927 C 207.271 188.449,206.889 188.090,205.903 188.781 C 205.594 188.997,205.469 189.283,205.469 189.771 C 205.469 190.395,205.441 190.430,205.162 190.151 C 204.084 189.073,203.031 190.353,203.626 192.016 C 204.371 194.099,204.879 196.366,204.635 196.521 C 204.203 196.796,204.102 196.690,204.085 195.947 C 204.012 192.677,202.641 190.301,201.465 191.406 C 201.087 191.761,200.879 191.806,200.137 191.695 C 198.382 191.432,198.185 192.202,198.753 197.119 C 198.861 198.057,198.833 198.242,198.582 198.242 C 198.233 198.242,197.893 194.309,198.144 193.168 C 198.303 192.443,198.072 192.195,197.231 192.190 C 196.330 192.185,196.029 192.685,196.182 193.933 C 196.588 197.253,196.636 198.152,196.420 198.415 C 196.069 198.842,195.940 198.061,195.918 195.377 C 195.894 192.464,195.867 192.383,194.925 192.383 C 193.759 192.383,193.698 192.577,193.905 195.642 C 194.103 198.590,194.108 198.542,193.631 198.359 C 193.332 198.244,193.311 197.951,193.422 195.394 L 193.544 192.557 192.622 192.616 L 191.699 192.676 191.699 195.635 C 191.699 198.454,191.682 198.585,191.338 198.401 C 191.007 198.224,190.983 197.970,191.045 195.344 L 191.113 192.480 190.186 192.421 L 189.258 192.361 189.258 195.416 C 189.258 197.773,189.202 198.451,189.014 198.387 C 188.754 198.298,188.753 198.169,188.982 194.648 C 189.138 192.244,189.022 191.992,187.749 191.992 C 187.390 191.992,186.884 191.853,186.625 191.684 C 186.329 191.490,185.841 191.397,185.315 191.435 C 184.612 191.486,184.465 191.434,184.403 191.114 C 184.235 190.242,182.912 189.935,182.273 190.620 C 181.920 191.000,181.911 190.993,181.687 190.156 C 181.522 189.540,181.338 189.274,181.013 189.188 C 180.293 188.995,179.589 189.044,179.321 189.307 C 179.121 189.502,179.122 189.440,179.324 188.991 C 179.719 188.112,178.295 187.213,177.603 187.905 C 177.454 188.054,177.354 187.956,177.257 187.563 C 177.087 186.874,176.215 185.938,175.745 185.938 C 175.499 185.938,175.391 185.791,175.391 185.456 C 175.391 185.010,175.514 185.073,177.039 186.296 C 184.864 192.575,197.458 193.415,206.055 188.231 C 207.872 187.135,210.420 185.264,211.035 184.572 L 211.426 184.133 211.490 184.776 C 211.540 185.288,211.893 185.750,213.221 187.042 M174.823 186.488 C 174.112 187.818,172.113 189.549,171.709 189.185 C 171.303 188.819,171.305 188.816,173.102 187.477 C 175.109 185.982,175.088 185.994,174.823 186.488 M149.844 188.516 C 149.083 189.277,149.721 190.430,150.904 190.430 C 152.211 190.430,152.837 189.374,151.987 188.604 C 151.569 188.227,150.190 188.170,149.844 188.516 M155.140 188.856 C 153.575 189.567,152.712 191.810,153.309 193.618 C 154.651 197.685,160.810 196.590,160.810 192.285 C 160.810 189.345,157.917 187.595,155.140 188.856 M227.991 188.856 C 226.426 189.567,225.564 191.810,226.161 193.618 C 227.503 197.685,233.661 196.590,233.661 192.285 C 233.661 189.345,230.768 187.595,227.991 188.856 M235.781 188.711 C 235.020 189.472,235.659 190.625,236.842 190.625 C 238.148 190.625,238.775 189.569,237.924 188.800 C 237.507 188.422,236.127 188.365,235.781 188.711 M176.035 190.332 C 175.061 191.774,174.609 192.268,174.609 191.889 C 174.609 191.749,176.963 188.672,177.070 188.672 C 177.117 188.672,176.651 189.419,176.035 190.332 M211.044 190.918 C 211.451 191.509,211.735 192.041,211.676 192.100 C 211.617 192.160,211.366 191.874,211.118 191.465 C 210.871 191.057,210.543 190.525,210.390 190.283 C 209.823 189.389,210.329 189.880,211.044 190.918 M158.252 191.221 C 159.842 192.944,157.402 195.136,155.742 193.477 C 154.764 192.498,154.895 191.560,156.116 190.806 C 156.896 190.324,157.539 190.449,158.252 191.221 M231.104 191.221 C 232.693 192.944,230.254 195.136,228.594 193.477 C 227.615 192.498,227.747 191.560,228.968 190.806 C 229.748 190.324,230.391 190.449,231.104 191.221 M177.808 191.260 C 177.162 192.513,176.545 193.372,176.370 193.264 C 176.213 193.166,177.828 190.625,178.047 190.625 C 178.096 190.625,177.988 190.911,177.808 191.260 M205.860 191.064 C 205.860 191.199,206.215 192.131,206.648 193.135 C 207.265 194.564,207.387 195.021,207.210 195.235 C 206.760 195.777,206.537 195.479,206.207 193.896 C 206.022 193.010,205.790 191.956,205.690 191.553 C 205.585 191.126,205.583 190.820,205.685 190.820 C 205.781 190.820,205.860 190.930,205.860 191.064 M181.641 191.299 C 181.641 191.528,181.171 192.383,181.046 192.383 C 180.968 192.383,180.705 192.888,180.460 193.506 C 179.808 195.153,179.675 195.378,179.473 195.176 C 179.197 194.900,181.047 191.211,181.461 191.211 C 181.560 191.211,181.641 191.251,181.641 191.299 M149.812 191.979 C 149.594 192.385,149.517 203.829,149.728 204.379 C 149.872 204.755,151.269 204.809,151.493 204.447 C 151.722 204.076,151.564 192.134,151.326 191.846 C 151.008 191.461,150.043 191.547,149.812 191.979 M235.749 192.175 C 235.532 192.581,235.455 204.024,235.665 204.574 C 235.810 204.950,237.207 205.004,237.431 204.642 C 237.660 204.271,237.501 192.329,237.263 192.041 C 236.946 191.657,235.981 191.742,235.749 192.175 M182.602 194.677 C 182.118 196.351,181.939 196.665,181.639 196.366 C 181.507 196.233,181.610 195.756,181.954 194.911 C 182.236 194.219,182.555 193.433,182.663 193.164 C 183.068 192.156,183.025 193.212,182.602 194.677 M184.685 195.541 C 184.343 197.355,183.984 197.984,183.985 196.768 C 183.987 196.023,184.064 195.644,184.598 193.750 C 184.993 192.352,185.053 193.590,184.685 195.541 M186.897 196.318 C 186.710 197.589,186.583 197.983,186.385 197.907 C 186.240 197.851,186.159 197.662,186.206 197.487 C 186.252 197.311,186.452 196.289,186.651 195.215 C 187.093 192.823,187.285 193.682,186.897 196.318 M200.696 195.960 C 201.038 197.582,201.041 197.710,200.734 197.608 C 200.489 197.526,200.024 195.317,200.024 194.238 L 200.025 193.652 200.220 194.141 C 200.328 194.409,200.542 195.228,200.696 195.960 M202.151 194.580 C 202.153 194.714,202.209 195.044,202.278 195.313 C 202.454 196.009,202.172 195.684,201.961 194.948 C 201.854 194.575,201.856 194.336,201.967 194.336 C 202.067 194.336,202.150 194.446,202.151 194.580 M155.140 196.669 C 153.575 197.379,152.712 199.622,153.309 201.431 C 154.651 205.497,160.810 204.402,160.810 200.098 C 160.810 197.157,157.917 195.408,155.140 196.669 M227.991 196.669 C 226.426 197.379,225.564 199.622,226.161 201.431 C 227.503 205.497,233.661 204.402,233.661 200.098 C 233.661 197.157,230.768 195.408,227.991 196.669 M158.252 199.033 C 159.842 200.756,157.402 202.949,155.742 201.289 C 154.764 200.311,154.895 199.372,156.116 198.618 C 156.896 198.136,157.539 198.261,158.252 199.033 M231.104 199.033 C 232.693 200.756,230.254 202.949,228.594 201.289 C 227.615 200.311,227.747 199.372,228.968 198.618 C 229.748 198.136,230.391 198.261,231.104 199.033 M270.410 201.748 C 265.488 202.143,261.356 203.240,260.330 204.423 C 259.789 205.047,259.769 205.645,260.157 209.565 C 260.364 211.663,260.846 216.938,261.228 221.289 C 262.581 236.715,262.893 239.720,263.186 240.168 C 265.667 243.954,282.279 244.220,285.522 240.526 C 286.024 239.955,286.083 239.722,286.205 237.870 C 286.758 229.421,286.898 227.490,286.964 227.424 C 287.005 227.383,288.000 226.948,289.174 226.458 C 295.320 223.891,298.242 220.398,298.242 215.619 C 298.242 211.159,295.571 208.725,290.684 208.729 L 288.496 208.731 288.614 206.803 C 288.746 204.629,288.581 204.272,287.087 203.506 C 284.369 202.112,276.375 201.269,270.410 201.748 M280.273 203.994 C 282.984 204.321,284.132 204.572,285.382 205.110 C 286.601 205.634,286.577 205.723,285.089 206.211 C 279.844 207.933,267.322 207.740,263.196 205.874 L 262.402 205.515 263.136 205.196 C 266.074 203.917,274.652 203.316,280.273 203.994 M264.452 208.410 C 269.835 209.835,280.437 209.818,285.059 208.378 C 285.703 208.177,286.296 208.012,286.377 208.010 C 286.458 208.009,286.523 208.612,286.523 209.351 C 286.523 211.088,286.693 211.247,288.212 210.932 C 294.426 209.642,298.025 213.824,295.298 219.168 C 294.066 221.585,290.603 223.977,286.572 225.196 C 284.895 225.703,284.913 225.681,284.860 227.325 C 284.837 228.033,284.659 230.967,284.465 233.843 L 284.111 239.073 283.511 239.439 C 279.750 241.728,268.737 241.715,265.396 239.417 C 264.954 239.113,264.856 238.871,264.756 237.839 C 264.691 237.169,264.244 232.183,263.761 226.758 C 263.279 221.333,262.710 215.041,262.497 212.775 C 262.003 207.524,262.001 207.735,262.549 207.895 C 262.791 207.965,263.647 208.197,264.452 208.410 M147.852 211.910 C 147.261 211.983,146.531 212.145,146.229 212.271 C 145.867 212.421,145.725 212.428,145.810 212.290 C 146.034 211.927,146.743 211.743,147.852 211.760 L 148.926 211.776 147.852 211.910 M241.321 212.519 C 241.932 213.130,243.265 215.963,244.620 219.531 C 244.763 219.907,245.061 220.670,245.283 221.227 L 245.687 222.239 245.018 221.959 C 244.650 221.806,244.060 221.678,243.707 221.675 L 243.066 221.671 243.511 221.329 C 244.657 220.447,243.760 217.266,242.233 216.796 C 240.856 216.373,240.881 216.396,241.455 216.092 C 243.017 215.265,241.574 212.601,239.258 212.036 L 237.988 211.727 239.313 211.781 C 240.534 211.831,240.692 211.889,241.321 212.519 M287.850 212.210 C 285.741 212.905,285.825 212.744,285.675 216.386 C 285.604 218.113,285.449 220.415,285.331 221.503 C 285.055 224.038,285.168 224.211,286.856 223.843 C 292.762 222.556,296.554 217.566,294.638 213.606 C 293.752 211.775,290.932 211.195,287.850 212.210 M154.686 212.173 C 152.906 212.769,151.730 215.265,152.835 216.101 C 153.503 216.606,157.911 216.524,158.786 215.990 C 159.862 215.334,160.673 213.754,160.430 212.786 C 160.229 211.984,156.454 211.582,154.686 212.173 M162.305 212.179 C 161.105 212.571,160.352 213.690,160.352 215.078 C 160.352 216.206,160.859 216.406,163.714 216.405 C 166.206 216.404,166.550 216.310,167.460 215.385 C 167.835 215.004,168.291 213.112,168.116 212.658 C 167.859 211.986,163.893 211.659,162.305 212.179 M169.727 212.269 C 169.026 212.535,168.810 212.732,168.661 213.235 C 168.558 213.583,168.404 213.867,168.319 213.867 C 168.141 213.867,168.116 214.939,168.281 215.552 C 168.625 216.835,174.427 216.773,175.179 215.479 C 175.359 215.169,175.423 215.193,175.854 215.723 C 176.695 216.759,181.870 216.656,182.439 215.592 C 182.656 215.188,182.665 215.191,183.108 215.746 L 183.557 216.309 186.199 216.309 L 188.841 216.309 189.440 215.735 C 190.081 215.121,190.259 213.886,189.859 212.833 C 189.425 211.692,184.386 211.552,183.154 212.647 C 182.849 212.919,182.813 212.920,182.813 212.651 C 182.813 211.518,176.628 211.736,176.043 212.889 L 175.816 213.336 175.750 212.875 C 175.617 211.950,171.623 211.549,169.727 212.269 M191.602 212.188 C 190.036 212.749,189.875 215.810,191.393 216.132 C 192.405 216.347,192.740 216.574,192.067 216.588 C 189.871 216.636,189.353 220.738,191.438 221.572 C 192.423 221.966,195.460 221.982,196.380 221.597 C 198.303 220.794,198.089 216.646,196.121 216.586 C 195.632 216.571,195.640 216.555,196.289 216.278 C 197.581 215.726,198.150 213.878,197.370 212.764 C 196.816 211.973,193.208 211.614,191.602 212.188 M199.121 212.151 C 198.242 212.460,198.101 212.631,197.963 213.549 C 197.762 214.889,198.535 216.211,199.519 216.211 C 199.784 216.211,200.000 216.299,200.000 216.406 C 200.000 216.514,199.829 216.602,199.620 216.602 C 197.886 216.602,197.521 220.612,199.177 221.464 C 200.022 221.898,203.698 221.993,204.459 221.599 C 206.151 220.724,206.061 217.226,204.334 216.708 C 203.685 216.513,203.490 216.211,204.013 216.211 C 205.032 216.211,205.540 214.323,204.942 212.764 C 204.675 212.067,200.584 211.636,199.121 212.151 M206.738 212.151 C 205.738 212.503,205.642 212.665,205.723 213.868 C 205.812 215.211,206.290 215.953,207.178 216.129 C 207.800 216.252,208.072 216.602,207.546 216.602 C 206.085 216.602,205.698 220.006,207.032 221.121 C 208.011 221.940,211.465 222.218,212.702 221.579 C 214.573 220.611,213.852 216.602,211.807 216.602 C 211.350 216.602,211.481 216.264,211.988 216.137 C 213.065 215.866,213.316 213.705,212.389 212.680 C 211.756 211.981,208.175 211.646,206.738 212.151 M145.011 213.883 C 144.381 215.127,144.443 215.630,145.277 216.046 L 145.924 216.370 145.277 216.509 C 144.490 216.678,143.703 217.067,143.271 217.500 C 142.721 218.049,143.894 214.498,144.647 213.330 C 145.254 212.390,145.544 212.832,145.011 213.883 M150.088 213.656 C 150.350 214.079,149.569 214.453,148.424 214.453 C 147.181 214.453,146.800 214.042,147.705 213.678 C 148.287 213.444,149.947 213.429,150.088 213.656 M157.813 214.042 C 157.813 214.494,157.444 214.649,156.381 214.645 C 155.271 214.641,154.844 214.355,155.360 213.961 C 155.957 213.505,157.813 213.566,157.813 214.042 M165.562 213.985 C 165.729 214.420,165.289 214.642,164.258 214.642 C 163.091 214.642,162.646 214.363,163.172 213.961 C 163.703 213.556,165.404 213.573,165.562 213.985 M173.358 213.897 C 173.687 214.429,171.962 214.895,171.012 214.530 C 170.598 214.371,170.619 213.918,171.045 213.807 C 171.749 213.622,173.224 213.680,173.358 213.897 M180.601 213.985 C 180.784 214.463,180.281 214.673,179.151 214.592 C 177.946 214.506,177.690 214.330,178.211 213.949 C 178.750 213.555,180.446 213.580,180.601 213.985 M187.632 213.985 C 187.791 214.398,187.371 214.642,186.491 214.645 C 185.598 214.649,185.156 214.487,185.156 214.156 C 185.156 213.605,187.426 213.448,187.632 213.985 M195.215 214.160 C 195.215 214.606,194.514 214.762,193.426 214.558 C 192.780 214.437,192.543 213.997,193.018 213.797 C 193.686 213.515,195.215 213.767,195.215 214.160 M202.714 213.850 C 203.380 214.272,202.771 214.700,201.639 214.606 C 200.558 214.516,199.971 214.131,200.450 213.827 C 200.771 213.622,202.380 213.639,202.714 213.850 M210.461 213.961 C 210.973 214.352,210.551 214.641,209.461 214.645 C 208.503 214.649,207.742 214.183,208.203 213.874 C 208.644 213.579,210.030 213.633,210.461 213.961 M218.059 213.935 C 218.692 214.398,218.231 214.702,217.047 214.604 C 215.987 214.516,215.404 214.128,215.879 213.827 C 216.264 213.582,217.672 213.652,218.059 213.935 M225.285 213.935 C 225.818 214.324,225.480 214.648,224.544 214.648 C 223.602 214.648,222.639 214.122,223.076 213.845 C 223.486 213.585,224.885 213.642,225.285 213.935 M232.317 213.935 C 232.814 214.299,232.531 214.648,231.739 214.648 C 230.850 214.648,230.078 214.333,230.078 213.970 C 230.078 213.582,231.797 213.555,232.317 213.935 M239.348 213.935 C 239.880 214.324,239.543 214.648,238.606 214.648 C 237.760 214.648,236.820 214.178,237.020 213.854 C 237.192 213.576,238.940 213.637,239.348 213.935 M292.155 214.199 C 293.706 215.167,293.213 217.945,291.209 219.533 C 290.403 220.172,287.507 221.752,287.379 221.624 C 287.307 221.552,287.633 216.807,287.813 215.295 C 287.976 213.932,290.647 213.258,292.155 214.199 M222.303 216.108 C 223.146 216.346,223.466 216.602,222.918 216.602 C 222.158 216.602,221.667 217.402,221.772 218.471 L 221.866 219.434 221.658 218.555 C 221.399 217.467,220.841 216.840,219.988 216.680 C 219.186 216.530,219.156 216.312,219.903 216.052 C 220.309 215.910,220.507 215.682,220.603 215.247 L 220.736 214.640 221.163 215.274 C 221.433 215.674,221.854 215.982,222.303 216.108 M228.595 215.661 C 228.820 215.849,229.290 216.059,229.639 216.129 C 230.259 216.252,230.533 216.602,230.009 216.602 C 229.864 216.602,229.512 216.817,229.228 217.081 C 228.943 217.344,228.711 217.495,228.711 217.416 C 228.711 217.182,227.611 216.602,227.167 216.602 C 226.613 216.602,226.651 216.323,227.241 216.054 C 227.510 215.931,227.784 215.594,227.860 215.291 C 227.945 214.951,228.031 214.855,228.091 215.034 C 228.143 215.190,228.370 215.472,228.595 215.661 M235.547 215.527 C 235.681 215.688,235.856 215.820,235.938 215.820 C 236.019 215.820,236.422 215.961,236.834 216.133 L 237.582 216.446 236.985 216.697 C 236.656 216.836,236.331 217.095,236.262 217.273 C 236.150 217.566,236.095 217.558,235.710 217.200 C 235.475 216.981,234.991 216.747,234.634 216.680 C 233.859 216.535,233.812 216.352,234.473 216.051 C 234.741 215.929,234.961 215.695,234.961 215.532 C 234.961 215.152,235.234 215.150,235.547 215.527 M152.937 216.821 C 152.020 217.098,151.223 217.692,151.063 218.218 C 150.990 218.457,150.815 218.785,150.674 218.946 C 150.080 219.625,150.103 221.183,150.712 221.588 C 151.531 222.133,154.943 222.250,156.184 221.775 C 158.198 221.007,159.564 217.900,158.263 217.047 C 157.638 216.638,154.048 216.485,152.937 216.821 M160.928 216.850 C 159.970 217.181,159.458 217.589,159.279 218.164 C 159.195 218.433,159.037 218.710,158.927 218.781 C 157.970 219.395,158.750 221.701,159.999 221.951 C 164.108 222.773,166.797 221.204,166.797 217.984 C 166.797 216.804,163.118 216.094,160.928 216.850 M168.737 216.904 C 167.839 217.180,167.773 217.256,167.078 218.804 C 166.656 219.745,166.784 221.249,167.313 221.563 C 169.108 222.625,173.168 222.150,174.182 220.759 L 174.578 220.215 174.713 220.757 C 175.082 222.226,180.110 222.435,181.596 221.043 L 182.039 220.628 182.334 221.048 C 182.961 221.943,187.000 222.238,188.456 221.495 C 189.792 220.813,190.327 217.819,189.268 216.961 C 188.576 216.400,183.672 216.487,183.028 217.071 C 182.633 217.429,182.603 217.430,182.230 217.093 C 181.328 216.277,176.266 216.464,175.451 217.344 C 175.006 217.824,174.626 217.742,174.612 217.162 C 174.599 216.625,170.260 216.434,168.737 216.904 M142.378 219.189 C 141.781 220.504,141.859 221.252,142.627 221.575 L 143.262 221.842 142.676 221.984 C 140.442 222.523,139.501 224.895,140.826 226.646 C 141.145 227.068,141.406 227.580,141.406 227.784 C 141.406 229.803,146.798 229.910,147.792 227.911 C 147.920 227.653,148.076 227.276,148.137 227.075 C 148.232 226.764,148.338 226.832,148.833 227.514 C 149.462 228.383,149.433 228.374,151.465 228.376 C 152.310 228.377,152.512 228.408,151.992 228.458 C 150.106 228.638,149.611 233.279,151.365 234.345 C 152.005 234.734,148.575 234.742,143.555 234.365 C 137.485 233.908,136.719 233.723,136.719 232.713 C 136.719 231.853,142.321 218.359,142.678 218.359 C 142.720 218.359,142.585 218.733,142.378 219.189 M211.101 218.531 C 211.245 218.622,211.333 218.906,211.296 219.163 C 211.163 220.106,208.594 219.794,208.594 218.834 C 208.594 218.390,210.513 218.158,211.101 218.531 M219.109 218.531 C 219.746 218.935,219.281 219.626,218.331 219.688 C 217.213 219.760,216.071 218.964,216.737 218.577 C 217.161 218.330,218.743 218.299,219.109 218.531 M226.524 218.485 C 226.872 218.578,226.961 218.722,226.915 219.117 C 226.832 219.834,225.354 219.963,224.542 219.325 C 223.603 218.586,224.880 218.045,226.524 218.485 M233.997 218.562 C 234.866 219.026,234.459 219.531,233.217 219.531 C 232.118 219.531,231.445 219.235,231.445 218.752 C 231.445 218.356,233.347 218.214,233.997 218.562 M241.224 218.562 C 242.130 219.046,241.686 219.584,240.454 219.495 C 239.202 219.405,238.343 218.882,238.884 218.540 C 239.262 218.301,240.762 218.314,241.224 218.562 M147.931 218.720 C 148.234 219.211,147.238 219.727,145.988 219.727 C 144.610 219.727,144.334 219.438,145.161 218.859 C 145.626 218.533,147.750 218.427,147.931 218.720 M156.047 218.741 C 156.574 219.075,155.408 219.922,154.422 219.922 C 152.965 219.922,152.527 219.165,153.714 218.699 C 154.180 218.516,155.736 218.545,156.047 218.741 M164.143 218.673 C 164.824 218.934,163.758 219.922,162.796 219.922 C 161.363 219.922,160.951 219.546,161.635 218.862 C 161.945 218.551,163.518 218.433,164.143 218.673 M172.207 218.710 C 172.390 218.826,172.389 218.967,172.203 219.342 C 171.802 220.150,169.684 220.138,169.472 219.326 C 169.308 218.700,171.437 218.220,172.207 218.710 M179.867 218.736 C 180.535 219.159,179.578 219.948,178.476 219.883 C 176.579 219.771,176.785 218.551,178.699 218.558 C 179.189 218.559,179.715 218.640,179.867 218.736 M187.191 218.673 C 187.361 218.738,187.500 218.903,187.500 219.040 C 187.500 219.789,185.377 220.142,184.735 219.501 L 184.320 219.086 184.787 218.827 C 185.274 218.557,186.658 218.469,187.191 218.673 M195.284 218.728 C 195.495 218.862,195.501 218.983,195.314 219.333 C 195.035 219.854,192.896 219.846,192.566 219.322 C 192.180 218.710,194.466 218.210,195.284 218.728 M203.320 218.921 C 203.320 219.544,202.818 219.784,201.736 219.680 C 200.735 219.584,200.341 219.303,200.527 218.817 C 200.703 218.358,203.320 218.456,203.320 218.921 M244.292 223.742 C 245.716 224.738,244.202 225.380,241.309 225.006 C 239.707 224.799,239.258 224.533,239.258 223.791 C 239.258 223.299,243.600 223.256,244.292 223.742 M147.266 224.277 C 147.266 225.074,146.927 225.195,144.699 225.195 C 142.460 225.195,142.273 225.119,142.572 224.333 C 142.858 223.581,147.266 223.528,147.266 224.277 M153.585 224.723 C 153.762 224.791,153.835 224.969,153.767 225.163 C 153.312 226.448,150.977 226.615,150.977 225.361 C 150.977 224.741,152.599 224.345,153.585 224.723 M161.258 225.099 C 161.594 225.974,160.094 226.706,158.903 226.249 C 158.487 226.089,158.509 225.264,158.936 225.016 C 159.486 224.695,161.126 224.754,161.258 225.099 M168.723 224.979 C 169.229 225.300,168.571 226.258,167.794 226.333 C 166.444 226.462,165.465 225.538,166.384 225.001 C 166.780 224.769,168.368 224.754,168.723 224.979 M176.333 225.353 C 176.428 226.021,176.028 226.367,175.159 226.367 C 174.083 226.367,173.579 226.066,173.747 225.525 C 174.027 224.629,176.210 224.483,176.333 225.353 M183.285 224.923 C 184.087 225.231,183.297 226.367,182.281 226.367 C 181.118 226.367,180.230 225.286,181.104 224.934 C 181.457 224.792,182.923 224.784,183.285 224.923 M190.396 225.353 C 190.575 226.616,188.304 226.785,187.838 225.542 C 187.654 225.053,188.215 224.799,189.355 224.855 C 190.210 224.896,190.340 224.959,190.396 225.353 M197.820 224.976 C 198.286 225.271,198.005 226.033,197.368 226.202 C 196.142 226.528,194.571 225.534,195.477 225.005 C 195.878 224.772,197.466 224.752,197.820 224.976 M205.242 224.976 C 205.818 225.342,205.421 226.070,204.608 226.137 C 203.222 226.250,202.357 225.651,202.991 225.016 C 203.241 224.767,204.865 224.738,205.242 224.976 M212.777 224.923 C 212.960 224.994,213.086 225.272,213.086 225.607 C 213.086 226.441,210.709 226.421,210.490 225.584 C 210.314 224.911,211.700 224.510,212.777 224.923 M220.589 225.062 C 221.276 225.564,220.900 226.068,219.790 226.133 C 218.649 226.199,217.749 225.598,218.191 225.065 C 218.471 224.728,220.130 224.726,220.589 225.062 M227.922 225.088 C 228.539 225.832,227.561 226.416,226.248 226.086 C 225.755 225.963,225.299 225.306,225.491 224.996 C 225.681 224.688,227.652 224.763,227.922 225.088 M235.073 225.282 C 235.249 225.984,235.038 226.172,234.071 226.172 C 233.249 226.172,232.422 225.698,232.422 225.228 C 232.422 224.555,234.903 224.605,235.073 225.282 M223.444 226.623 C 223.453 227.196,224.044 227.873,224.839 228.218 C 225.468 228.491,225.431 228.501,223.697 228.508 L 221.905 228.516 222.476 227.945 C 222.898 227.523,223.047 227.188,223.047 226.664 C 223.047 226.240,223.126 226.002,223.242 226.074 C 223.350 226.141,223.440 226.387,223.444 226.623 M243.335 226.874 C 243.375 226.908,243.356 227.072,243.292 227.238 C 243.059 227.846,240.188 227.473,239.759 226.779 C 239.641 226.587,243.105 226.679,243.335 226.874 M230.664 227.041 C 230.664 227.366,231.745 228.235,232.324 228.375 C 232.539 228.428,231.880 228.480,230.859 228.492 L 229.004 228.514 229.639 228.127 C 230.084 227.856,230.273 227.593,230.273 227.249 C 230.273 226.979,230.361 226.758,230.469 226.758 C 230.576 226.758,230.664 226.885,230.664 227.041 M179.389 228.167 C 179.771 228.490,179.737 228.503,178.467 228.509 C 177.071 228.516,176.840 228.356,177.633 227.931 C 177.900 227.789,178.172 227.502,178.238 227.296 C 178.351 226.939,178.374 226.944,178.675 227.376 C 178.849 227.627,179.170 227.983,179.389 228.167 M145.902 227.337 C 145.457 227.619,144.208 227.782,143.709 227.624 C 143.278 227.486,143.276 227.476,143.652 227.329 C 144.233 227.102,146.262 227.109,145.902 227.337 M185.879 227.623 C 185.965 227.777,186.299 228.040,186.621 228.208 C 187.195 228.507,187.172 228.513,185.547 228.514 L 183.887 228.514 184.521 228.127 C 184.871 227.914,185.156 227.651,185.156 227.542 C 185.156 227.243,185.701 227.304,185.879 227.623 M234.336 231.379 C 234.440 233.181,238.813 233.008,193.282 233.008 C 147.933 233.008,152.344 233.176,152.344 231.448 C 152.344 230.945,152.403 230.475,152.474 230.403 C 152.546 230.331,170.981 230.295,193.441 230.322 L 234.277 230.371 234.336 231.379 M223.860 234.961 C 233.557 234.961,233.594 234.962,233.594 235.363 C 233.594 235.584,233.528 235.726,233.447 235.678 C 233.367 235.630,231.807 235.668,229.980 235.761 C 228.154 235.854,210.884 235.912,191.602 235.891 C 172.319 235.869,155.796 235.862,154.883 235.875 C 153.587 235.892,153.319 235.852,153.662 235.692 C 153.904 235.579,154.102 235.370,154.102 235.226 C 154.102 234.893,165.314 234.800,193.929 234.894 C 205.038 234.931,218.507 234.961,223.860 234.961 M133.227 237.632 C 134.272 238.033,128.383 238.004,193.359 237.926 C 230.992 237.881,245.924 237.924,247.266 238.083 C 249.651 238.365,251.847 238.128,253.801 237.378 C 254.863 236.971,253.828 239.473,252.682 240.086 L 251.855 240.527 193.262 240.527 C 127.498 240.527,133.492 240.673,132.666 239.057 C 132.286 238.315,132.075 237.305,132.300 237.305 C 132.340 237.305,132.757 237.452,133.227 237.632 M125.756 249.561 C 125.367 250.035,124.609 251.472,124.609 251.737 C 124.609 251.857,124.382 252.416,124.103 252.979 C 123.825 253.543,123.386 254.613,123.127 255.357 C 122.868 256.101,122.537 256.892,122.391 257.114 C 121.959 257.775,121.250 260.065,121.321 260.568 C 121.508 261.891,124.581 261.106,124.616 259.726 C 124.636 258.942,125.322 258.594,126.849 258.594 L 128.342 258.594 128.731 259.521 C 129.392 261.101,129.298 261.035,130.881 261.035 C 132.622 261.035,132.762 260.777,131.949 259.061 C 131.672 258.476,131.445 257.917,131.445 257.819 C 131.445 257.721,131.138 257.042,130.763 256.311 C 130.387 255.579,130.080 254.870,130.079 254.735 C 130.079 254.601,129.853 254.029,129.579 253.466 C 129.304 252.902,128.863 251.826,128.599 251.074 C 127.959 249.250,126.604 248.528,125.756 249.561 M135.781 249.453 C 135.612 249.623,135.547 251.022,135.547 254.520 C 135.547 257.531,135.473 259.397,135.352 259.473 C 134.343 260.096,135.485 261.176,137.066 261.094 L 138.184 261.035 138.238 258.252 C 138.299 255.112,138.323 255.070,139.234 256.547 C 139.597 257.136,139.955 257.617,140.031 257.617 C 140.107 257.617,140.291 257.859,140.440 258.154 C 140.590 258.450,140.978 259.011,141.303 259.403 C 141.628 259.794,142.090 260.348,142.329 260.634 C 142.706 261.086,142.886 261.147,143.696 261.095 L 144.629 261.035 144.629 255.176 L 144.629 249.316 143.359 249.316 L 142.090 249.316 142.036 252.241 C 141.983 255.085,141.972 255.152,141.645 254.655 C 141.460 254.374,140.627 253.249,139.795 252.154 C 138.962 251.060,138.281 250.085,138.281 249.989 C 138.281 249.430,136.242 248.993,135.781 249.453 M149.260 249.463 C 148.978 249.804,148.875 260.672,149.152 260.949 C 149.265 261.062,149.875 261.127,150.509 261.095 L 151.660 261.035 151.758 258.105 C 151.839 255.666,151.895 255.246,152.094 255.593 C 152.226 255.822,153.017 256.923,153.852 258.039 C 154.688 259.155,155.511 260.281,155.681 260.542 C 155.944 260.943,156.151 261.017,157.048 261.025 L 158.105 261.035 158.105 255.176 L 158.105 249.316 156.836 249.316 L 155.566 249.316 155.512 252.231 L 155.458 255.146 154.829 254.176 C 154.482 253.642,153.994 252.989,153.743 252.726 C 153.492 252.462,153.161 252.004,153.006 251.709 C 152.851 251.414,152.655 251.172,152.570 251.172 C 152.485 251.172,152.215 250.815,151.970 250.378 C 151.375 249.321,149.814 248.793,149.260 249.463 M164.842 249.390 C 159.721 251.064,159.701 259.708,164.815 260.931 C 169.761 262.114,173.470 258.340,172.272 253.345 C 171.556 250.364,167.869 248.401,164.842 249.390 M176.497 249.365 C 176.448 249.446,176.465 252.104,176.534 255.273 L 176.660 261.035 177.930 261.035 L 179.199 261.035 179.297 258.105 C 179.365 256.061,179.450 255.294,179.579 255.566 C 179.680 255.781,180.185 256.496,180.702 257.155 C 181.218 257.814,181.641 258.446,181.641 258.560 C 181.641 258.674,181.802 258.882,182.000 259.022 C 182.198 259.162,182.594 259.649,182.879 260.104 C 183.429 260.978,183.902 261.202,184.983 261.098 L 185.645 261.035 185.645 255.176 L 185.645 249.316 184.375 249.316 L 183.105 249.316 183.051 252.227 L 182.997 255.138 182.420 254.278 C 181.465 252.854,180.568 251.652,180.015 251.056 C 179.727 250.746,179.492 250.388,179.492 250.260 C 179.492 249.547,176.863 248.762,176.497 249.365 M210.586 249.453 C 210.025 250.014,210.375 251.169,211.638 252.927 C 212.005 253.438,212.305 253.939,212.305 254.042 C 212.305 254.145,212.525 254.436,212.795 254.689 L 213.285 255.150 212.841 255.651 C 212.596 255.927,212.230 256.460,212.026 256.836 C 211.822 257.212,211.425 257.827,211.144 258.203 C 209.615 260.247,209.744 261.035,211.605 261.035 L 212.956 261.035 213.645 260.059 C 214.025 259.521,214.479 258.788,214.655 258.428 L 214.976 257.773 215.310 258.476 C 215.493 258.863,215.717 259.180,215.807 259.180 C 215.897 259.180,216.109 259.470,216.277 259.825 C 216.812 260.952,217.189 261.160,218.581 261.094 C 220.289 261.013,220.376 260.461,219.005 258.400 C 218.489 257.625,217.816 256.584,217.509 256.087 L 216.951 255.184 217.304 254.497 C 217.499 254.118,218.052 253.208,218.534 252.473 C 219.247 251.388,219.413 250.966,219.422 250.227 L 219.434 249.316 218.232 249.259 C 217.043 249.202,216.211 249.728,216.211 250.537 C 216.211 250.638,216.043 250.873,215.838 251.058 C 215.633 251.244,215.359 251.652,215.229 251.966 L 214.993 252.537 214.319 251.415 C 213.076 249.345,211.515 248.524,210.586 249.453 M227.246 249.399 C 222.028 250.421,221.329 259.126,226.329 260.830 C 228.107 261.436,231.447 261.055,232.082 260.173 C 232.215 259.989,232.478 259.780,232.666 259.710 C 233.080 259.555,233.144 258.304,232.749 258.066 C 232.607 257.980,232.434 257.756,232.364 257.568 C 232.167 257.032,230.938 257.121,230.141 257.728 C 227.822 259.497,225.072 256.692,226.332 253.843 C 227.049 252.222,228.594 251.708,229.962 252.637 C 230.915 253.284,231.720 253.268,232.439 252.589 C 234.250 250.880,230.729 248.717,227.246 249.399 M237.201 249.456 C 237.147 249.597,237.127 252.260,237.155 255.373 L 237.207 261.035 238.347 261.094 C 239.970 261.178,240.039 261.079,240.039 258.667 L 240.039 256.641 241.986 256.641 L 243.933 256.641 243.988 258.838 L 244.043 261.035 245.313 261.035 L 246.582 261.035 246.582 255.273 L 246.582 249.512 245.313 249.512 L 244.043 249.512 243.996 250.293 C 243.970 250.723,243.897 251.711,243.833 252.490 L 243.717 253.906 241.786 253.906 L 239.856 253.906 239.801 251.611 L 239.746 249.316 238.523 249.258 C 237.651 249.217,237.271 249.273,237.201 249.456 M272.013 249.463 C 271.738 249.668,271.678 250.158,271.634 252.539 L 271.582 255.371 271.215 254.632 C 271.013 254.225,270.683 253.805,270.482 253.697 C 270.282 253.590,270.117 253.404,270.117 253.285 C 270.117 253.011,268.445 250.721,267.694 249.966 C 267.193 249.462,267.010 249.403,266.132 249.454 L 265.137 249.512 265.137 255.273 L 265.137 261.035 266.504 261.035 L 267.871 261.035 267.969 258.219 L 268.066 255.402 268.848 256.525 C 269.277 257.142,269.961 258.124,270.367 258.706 C 270.772 259.289,271.190 259.766,271.294 259.766 C 271.399 259.766,271.484 259.882,271.484 260.025 C 271.484 260.647,272.382 261.158,273.365 261.096 L 274.316 261.035 274.368 255.395 C 274.405 251.396,274.355 249.676,274.198 249.487 C 273.920 249.151,272.452 249.135,272.013 249.463 M282.910 249.351 C 280.022 249.992,278.583 252.183,278.765 255.664 C 278.975 259.681,280.776 261.275,284.904 261.096 C 288.404 260.944,288.857 260.466,288.863 256.909 C 288.868 253.673,289.000 253.806,285.988 253.986 C 283.449 254.138,283.203 254.246,283.203 255.213 C 283.203 256.430,283.449 256.641,284.870 256.641 L 286.133 256.641 286.133 257.330 C 286.133 259.506,282.129 258.170,281.739 255.864 C 281.281 253.150,284.855 250.752,286.191 252.877 C 286.780 253.813,288.672 252.679,288.672 251.389 C 288.672 249.934,285.438 248.789,282.910 249.351 M96.573 249.661 C 96.521 249.796,96.502 252.411,96.530 255.471 L 96.582 261.035 99.773 261.089 C 103.436 261.151,104.312 260.904,105.135 259.581 C 105.754 258.585,105.740 256.399,105.110 255.513 C 104.762 255.024,104.712 254.812,104.873 254.510 C 105.755 252.862,104.660 250.106,102.926 249.608 C 101.891 249.311,96.690 249.354,96.573 249.661 M109.710 249.561 C 109.667 249.641,109.683 252.256,109.747 255.371 L 109.863 261.035 111.133 261.035 L 112.402 261.035 112.459 259.229 L 112.515 257.422 113.173 257.422 C 113.766 257.422,113.877 257.515,114.281 258.350 C 115.512 260.897,116.239 261.501,117.727 261.214 C 119.104 260.948,119.016 260.080,117.343 257.441 L 116.922 256.777 117.414 256.367 C 119.425 254.693,118.646 250.283,116.220 249.609 C 115.414 249.385,109.827 249.344,109.710 249.561 M198.632 249.708 C 198.330 250.072,198.458 260.645,198.768 260.955 C 198.877 261.064,200.561 261.119,202.846 261.088 L 206.738 261.035 206.738 259.766 L 206.738 258.496 204.053 258.442 L 201.367 258.387 201.367 257.514 L 201.367 256.641 203.574 256.641 C 206.061 256.641,206.250 256.554,206.250 255.417 C 206.250 253.974,206.131 253.906,203.606 253.906 L 201.367 253.906 201.367 253.008 L 201.367 252.110 203.564 252.244 C 206.643 252.432,206.872 252.325,206.796 250.734 L 206.738 249.512 202.810 249.459 C 199.462 249.414,198.846 249.451,198.632 249.708 M254.722 249.666 C 254.598 249.815,254.361 250.323,254.194 250.795 C 254.028 251.267,253.779 251.831,253.641 252.048 C 253.504 252.264,253.186 253.013,252.934 253.711 C 252.682 254.409,252.373 255.112,252.247 255.273 C 252.121 255.435,251.771 256.270,251.470 257.129 C 251.169 257.988,250.753 258.975,250.545 259.322 C 249.822 260.533,250.095 261.026,251.531 261.094 C 252.997 261.163,253.195 261.036,253.818 259.627 L 254.275 258.594 255.800 258.599 L 257.324 258.604 258.010 259.820 L 258.696 261.035 259.963 261.035 L 261.230 261.035 261.292 260.287 C 261.338 259.727,261.153 259.123,260.560 257.890 C 260.123 256.984,259.766 256.149,259.766 256.034 C 259.766 255.920,259.511 255.284,259.199 254.622 C 258.888 253.960,258.483 253.022,258.299 252.539 C 257.908 251.510,257.683 250.991,257.454 250.586 C 257.363 250.425,257.199 250.117,257.091 249.902 C 256.842 249.410,255.080 249.234,254.722 249.666 M293.579 249.678 C 293.417 249.873,293.368 251.520,293.405 255.492 L 293.457 261.035 297.074 261.194 C 301.603 261.392,301.758 261.350,301.758 259.907 C 301.758 258.437,301.683 258.398,298.789 258.398 L 296.289 258.398 296.289 257.520 L 296.289 256.641 298.414 256.641 C 300.910 256.641,301.026 256.568,300.938 255.045 L 300.879 254.004 298.584 253.949 L 296.289 253.894 296.289 253.022 L 296.289 252.150 298.828 252.188 C 301.780 252.232,301.800 252.221,301.720 250.663 L 301.660 249.512 297.732 249.459 C 294.566 249.416,293.761 249.459,293.579 249.678 M167.517 252.212 C 169.336 252.883,169.982 255.424,168.750 257.060 C 167.453 258.782,165.795 258.694,164.554 256.836 C 163.025 254.546,165.092 251.319,167.517 252.212 M101.471 252.431 C 102.731 252.958,102.009 253.906,100.347 253.906 L 99.414 253.906 99.414 253.027 C 99.414 252.022,100.051 251.838,101.471 252.431 M114.541 252.425 C 116.350 253.180,115.572 254.492,113.316 254.492 L 112.500 254.492 112.500 253.320 L 112.500 252.148 113.190 252.148 C 113.569 252.148,114.177 252.273,114.541 252.425 M256.243 255.713 C 256.247 255.793,256.074 255.859,255.859 255.859 C 255.434 255.859,255.413 255.796,255.598 255.103 L 255.722 254.639 255.979 255.103 C 256.121 255.358,256.239 255.632,256.243 255.713 M127.145 255.615 C 127.147 255.750,126.927 255.859,126.656 255.859 C 126.172 255.859,126.169 255.850,126.490 255.359 C 126.816 254.862,127.138 254.988,127.145 255.615 M102.232 256.948 C 103.067 257.783,102.322 258.398,100.476 258.398 L 99.414 258.398 99.414 257.520 L 99.414 256.641 100.670 256.641 C 101.551 256.641,102.017 256.732,102.232 256.948 M172.839 267.886 C 172.511 268.281,172.693 268.979,174.149 272.922 C 175.447 276.434,175.426 276.403,176.433 276.328 L 177.216 276.270 177.795 274.529 L 178.374 272.789 178.927 274.307 C 179.594 276.138,179.768 276.367,180.488 276.367 C 181.245 276.367,181.402 276.077,182.806 272.087 C 184.258 267.960,184.258 267.871,182.814 267.871 L 181.741 267.871 181.299 269.141 C 180.429 271.635,180.508 271.610,179.803 269.629 L 179.178 267.871 178.331 267.871 C 177.348 267.871,177.363 267.850,176.711 270.087 L 176.236 271.717 175.701 270.087 C 174.887 267.605,173.779 266.753,172.839 267.886 M190.552 267.853 C 187.137 269.124,186.875 274.190,190.139 275.837 C 193.292 277.427,196.443 275.243,196.258 271.594 C 196.109 268.643,193.329 266.820,190.552 267.853 M212.350 267.781 L 211.906 267.959 211.959 272.017 L 212.012 276.074 213.086 276.074 L 214.160 276.074 214.258 274.852 L 214.355 273.629 215.499 274.910 L 216.642 276.190 217.745 276.132 C 219.404 276.045,219.361 275.612,217.489 273.514 L 216.004 271.849 217.293 270.303 C 218.937 268.332,218.953 267.899,217.386 267.810 L 216.314 267.750 215.314 268.877 L 214.314 270.004 214.170 269.035 C 213.956 267.595,213.534 267.305,212.350 267.781 M150.958 268.228 C 148.478 269.537,148.013 273.253,150.090 275.167 C 152.024 276.950,155.857 276.669,156.018 274.733 C 156.124 273.470,155.459 273.135,154.034 273.730 C 152.993 274.165,152.571 274.094,151.836 273.359 C 150.398 271.922,151.762 269.545,153.589 270.303 C 155.213 270.978,156.055 270.713,156.055 269.528 C 156.055 267.998,152.912 267.196,150.958 268.228 M162.495 268.213 C 159.251 269.854,159.806 275.236,163.317 276.181 C 166.704 277.094,169.183 274.405,168.468 270.595 C 168.040 268.314,164.828 267.033,162.495 268.213 M200.869 268.023 C 200.816 268.160,200.797 270.026,200.826 272.169 L 200.879 276.065 201.416 276.254 C 202.529 276.645,203.019 276.233,203.085 274.850 C 203.163 273.227,203.546 273.229,204.590 274.856 L 205.371 276.074 206.348 276.074 C 207.568 276.074,207.742 275.518,206.945 274.159 C 206.445 273.305,206.445 273.303,206.836 272.949 C 208.157 271.754,207.651 268.884,205.980 268.090 C 205.120 267.682,201.020 267.628,200.869 268.023 M222.552 268.012 C 222.497 268.156,222.476 270.028,222.505 272.173 L 222.559 276.074 223.535 276.074 L 224.512 276.074 224.512 271.973 L 224.512 267.871 223.582 267.811 C 222.943 267.770,222.621 267.833,222.552 268.012 M229.189 268.023 C 229.136 268.160,229.117 270.028,229.146 272.173 L 229.199 276.074 230.129 276.134 C 231.209 276.203,231.159 276.288,231.381 274.036 L 231.543 272.388 232.971 274.291 L 234.398 276.193 235.217 276.134 L 236.035 276.074 236.144 274.095 C 236.203 273.006,236.203 271.161,236.144 269.993 L 236.035 267.871 235.059 267.871 L 234.082 267.871 233.984 269.691 L 233.887 271.511 232.461 269.642 L 231.036 267.773 230.160 267.773 C 229.630 267.773,229.247 267.872,229.189 268.023 M242.973 268.213 C 239.971 269.746,240.058 274.631,243.109 275.909 C 244.086 276.318,246.351 276.248,247.267 275.781 C 248.326 275.240,248.461 274.886,248.396 272.802 L 248.340 270.996 246.632 270.940 C 244.448 270.868,244.099 271.037,244.179 272.132 L 244.238 272.949 245.166 273.009 C 245.781 273.048,246.094 273.156,246.094 273.330 C 246.094 273.986,244.495 274.005,243.847 273.357 C 242.388 271.898,243.697 269.688,245.670 270.280 C 247.366 270.788,248.153 270.418,248.010 269.180 C 247.921 268.405,246.577 267.773,245.020 267.773 C 244.174 267.773,243.586 267.900,242.973 268.213 M192.663 270.112 C 194.706 270.889,193.928 274.394,191.816 273.930 C 189.993 273.530,189.755 270.811,191.482 270.113 C 192.031 269.891,192.082 269.891,192.663 270.112 M204.596 270.205 C 205.552 270.604,205.281 271.484,204.201 271.484 C 203.949 271.484,203.604 271.538,203.434 271.603 C 203.180 271.700,203.125 271.562,203.125 270.822 C 203.125 269.797,203.372 269.694,204.596 270.205 M165.529 270.557 C 166.181 271.119,166.403 272.432,165.958 273.110 C 165.199 274.269,163.767 274.167,163.031 272.903 C 162.050 271.220,164.081 269.312,165.529 270.557 M112.061 271.500 C 111.659 271.734,111.586 273.031,111.953 273.398 C 112.263 273.708,138.108 273.739,138.685 273.431 C 139.121 273.197,139.218 271.913,138.828 271.523 C 138.521 271.217,112.586 271.194,112.061 271.500 M258.740 271.500 C 258.339 271.734,258.265 273.031,258.633 273.398 C 259.078 273.844,286.575 273.725,286.981 273.276 C 287.387 272.828,287.393 272.284,287.001 271.723 L 286.697 271.289 272.889 271.295 C 263.875 271.299,258.963 271.370,258.740 271.500 " stroke="none" fill="#000000" fill-rule="evenodd"></path></g></svg>